# xmcd
#
# Track frame offsets: 
#        150
#        14476
#        29434
#        41241
#        53284
#        66281
#        79276
#        91555
#        110165
#        128786
#
# Disc length: 1884 seconds
#
# Revision: 0
# Processed by: cddbd v1.5.2PL0 Copyright (c) Steve Scherf et al.
# Submitted via: ExactAudioCopy v0.95b4
#
DISCID=7f075a0a
DTITLE=Mike Scott - Classics For Banjo
DYEAR=1900
DGENRE=Bluegrass
TTITLE0=Theme Time
TTITLE1=Old Joe Clark
TTITLE2=Alabama Jubilee
TTITLE3=Cumberland Gap
TTITLE4=Cripple Creek
TTITLE5=Farewell Blues
TTITLE6=Fireball Mail
TTITLE7=Sally Goodin'
TTITLE8=Pass Me Not
TTITLE9=Foggy Mountain Breakdown
EXTD=
EXTT0=
EXTT1=
EXTT2=
EXTT3=
EXTT4=
EXTT5=
EXTT6=
EXTT7=
EXTT8=
EXTT9=
PLAYORDER=
